{"glyphs":{":":{"x_min":0,"x_max":214,"ha":214,"o":"m 84 443 l 162 443 l 154 359 l 76 359 z m 47 84 l 125 84 l 117 0 l 39 0 z"},"$":{"x_min":0,"x_max":458,"ha":458,"o":"m 397 156 q 397 82 348 40 q 300 -3 218 -7 l 212 -65 l 177 -65 l 183 -7 q 133 -4 91 11 q 49 26 27 41 l 48 150 l 94 146 l 84 69 q 132 43 188 39 l 210 252 q 151 266 110 292 q 68 318 68 377 q 68 447 116 486 q 164 525 239 528 l 246 593 l 281 593 l 274 528 q 354 523 408 482 l 402 370 l 356 367 l 355 455 q 318 481 269 484 l 250 296 q 301 283 349 255 q 397 227 397 156 z m 126 387 q 126 346 151 330 q 176 314 216 304 l 234 484 q 126 476 126 387 z m 339 147 q 339 191 314 211 q 288 231 244 243 l 223 38 q 271 42 305 68 q 339 94 339 147 z"},"?":{"x_min":0,"x_max":430,"ha":430,"o":"m 109 461 l 64 464 l 81 576 q 106 608 152 634 q 199 660 260 660 q 322 660 372 628 q 423 596 423 535 q 423 483 388 446 q 353 410 307 380 q 261 351 226 322 q 191 293 191 257 q 191 217 242 217 l 238 175 q 178 173 156 197 q 134 221 134 251 q 134 298 168 331 q 203 364 248 392 q 294 420 328 452 q 363 483 363 526 q 363 562 334 586 q 304 609 250 609 q 213 609 186 598 q 158 586 133 564 z m 137 0 l 146 84 l 217 84 l 208 0 z"},"<":{"x_min":0,"x_max":400,"ha":400,"o":"m 315 14 l 30 272 l 31 286 l 371 549 l 364 494 l 92 280 l 321 69 z"},"'":{"x_min":0,"x_max":186,"ha":186,"o":"m 128 377 l 79 377 l 105 650 l 160 650 z"},"=":{"x_min":0,"x_max":574,"ha":574,"o":"m 73 369 l 78 413 l 526 413 l 521 369 z m 50 149 l 55 192 l 503 192 l 498 149 z"},"a":{"x_min":0,"x_max":500,"ha":500,"o":"m 447 444 q 438 410 430 377 q 422 344 418 311 l 385 46 l 454 46 l 451 15 l 432 0 l 335 0 l 338 90 q 316 50 280 20 q 244 -10 186 -10 q 113 -10 74 40 q 36 89 36 177 q 36 233 55 298 q 74 362 119 408 q 164 453 242 453 q 347 453 376 368 q 384 409 395 444 z m 246 406 q 185 406 152 370 q 119 333 106 282 q 93 230 93 186 q 93 36 199 36 q 258 36 296 82 q 334 128 346 174 l 361 285 q 361 336 330 371 q 298 406 246 406 z"},"L":{"x_min":0,"x_max":526,"ha":526,"o":"m 464 0 l 13 0 l 18 51 l 101 51 l 159 599 l 76 599 l 81 650 l 330 650 l 325 599 l 214 599 l 156 51 l 418 51 l 454 206 l 504 202 z"},"3":{"x_min":0,"x_max":499,"ha":499,"o":"m 132 371 l 88 377 l 114 476 q 134 493 176 512 q 218 531 271 531 q 340 531 388 494 q 436 457 436 389 q 436 336 406 288 q 376 240 293 218 l 293 214 q 373 200 402 156 q 431 113 431 69 q 431 -22 370 -82 q 310 -141 206 -141 q 120 -141 78 -102 q 35 -63 25 -10 l 69 6 q 83 -35 114 -64 q 146 -92 209 -92 q 306 -92 339 -39 q 372 14 372 66 q 372 120 332 152 q 293 183 191 187 l 195 231 q 298 238 338 284 q 377 330 377 380 q 377 481 255 481 q 210 481 160 455 z"},";":{"x_min":0,"x_max":229,"ha":229,"o":"m 94 359 l 102 443 l 180 443 l 172 359 z m 1 -107 l 73 105 l 126 105 l 54 -107 z"},"J":{"x_min":0,"x_max":436,"ha":436,"o":"m 179 650 l 437 650 l 432 599 l 359 599 l 313 161 q 305 76 260 33 q 214 -10 140 -10 q 82 -10 49 15 q 16 40 0 82 l 44 114 q 76 44 141 44 q 196 44 224 76 q 252 108 258 161 l 304 599 l 174 599 z"},"V":{"x_min":0,"x_max":625,"ha":625,"o":"m 249 599 l 152 599 l 293 82 l 297 82 l 543 599 l 444 599 l 449 650 l 666 650 l 660 599 l 600 599 l 308 0 l 259 0 l 92 599 l 29 599 l 34 650 l 254 650 z"},"\"":{"x_min":0,"x_max":362,"ha":362,"o":"m 128 377 l 79 377 l 105 650 l 160 650 z m 304 377 l 255 377 l 281 650 l 336 650 z"},"7":{"x_min":0,"x_max":457,"ha":457,"o":"m 62 521 l 455 521 l 459 484 l 152 -130 l 91 -130 l 399 471 l 107 471 l 96 360 l 44 360 z"},"S":{"x_min":0,"x_max":519,"ha":519,"o":"m 460 191 q 460 96 399 43 q 338 -10 225 -10 q 165 -10 110 4 q 54 18 26 39 l 49 158 l 94 153 l 83 71 q 111 55 150 48 q 190 41 225 41 q 302 41 351 75 q 400 109 400 183 q 400 260 352 280 q 304 301 247 315 q 187 330 133 362 q 79 393 79 478 q 79 572 146 616 q 213 660 292 660 q 341 660 393 646 q 445 632 471 611 l 464 485 l 417 480 l 417 583 q 387 599 354 604 q 322 609 298 609 q 223 609 180 575 q 137 541 137 481 q 137 421 176 400 q 216 380 273 366 q 350 346 405 316 q 460 286 460 191 z"},"}":{"x_min":0,"x_max":273,"ha":273,"o":"m 165 271 q 121 279 102 300 q 83 320 83 346 q 83 381 112 434 q 140 486 169 542 q 198 598 198 644 q 198 698 142 698 l 79 698 l 84 741 l 147 741 q 245 741 245 647 q 245 595 216 538 q 188 480 160 429 q 131 378 131 347 q 131 310 164 300 q 198 289 221 289 l 239 289 l 235 254 l 217 254 q 193 254 154 241 q 114 228 114 184 q 114 140 141 64 q 168 -11 168 -78 q 168 -139 136 -171 q 103 -203 48 -203 l -15 -203 l -11 -160 l 52 -160 q 122 -160 122 -82 q 122 -41 108 8 q 94 58 80 104 q 66 150 66 182 q 66 212 88 237 q 110 262 165 271 z"},"Z":{"x_min":0,"x_max":562,"ha":562,"o":"m 473 0 l 6 0 l 8 37 l 457 596 l 457 599 l 151 599 l 107 458 l 61 466 l 107 650 l 533 650 l 538 615 l 88 54 l 87 51 l 427 51 l 471 194 l 519 185 z"},"x":{"x_min":0,"x_max":468,"ha":468,"o":"m 440 16 l 421 0 l 247 0 l 250 29 l 269 46 l 318 46 l 220 202 q 144 156 110 106 q 77 57 91 0 l 29 0 q 13 71 71 129 q 129 187 198 231 l 89 397 l 23 397 l 27 426 l 45 444 l 222 444 l 218 413 l 199 397 l 149 397 l 238 256 q 385 353 356 444 l 416 444 q 437 388 384 331 q 330 274 259 228 l 377 46 l 443 46 z"},")":{"x_min":0,"x_max":268,"ha":268,"o":"m 17 -183 l -37 -183 q 69 -62 123 63 q 177 188 177 323 q 177 423 148 526 q 118 630 58 718 l 114 718 q 172 626 198 525 q 225 424 225 327 q 225 194 175 68 q 125 -58 17 -183 z"},"&":{"x_min":0,"x_max":723,"ha":723,"o":"m 426 356 l 706 356 l 701 307 l 588 307 q 565 259 524 200 q 482 140 427 91 q 460 69 495 56 q 530 44 567 44 q 616 44 653 67 l 663 19 q 612 -10 556 -10 q 467 -10 381 54 q 341 25 298 8 q 254 -10 207 -10 q 136 -10 88 31 q 39 72 39 143 q 39 206 80 250 q 122 294 185 327 q 162 394 162 454 q 162 548 217 604 q 272 660 352 660 q 414 660 454 626 q 494 593 494 538 q 494 480 454 441 q 413 402 356 373 q 298 344 249 320 q 272 263 310 209 q 348 155 395 116 q 439 156 474 207 q 508 258 529 307 l 420 307 z m 436 534 q 436 566 414 590 q 392 613 348 613 q 293 613 256 574 q 218 535 218 462 q 218 407 237 353 q 308 388 372 431 q 436 474 436 534 z m 198 293 q 154 268 124 236 q 95 204 95 152 q 95 93 132 66 q 168 40 219 40 q 286 40 348 80 q 251 167 198 293 z"},"_":{"x_min":0,"x_max":536,"ha":536,"o":"m 20 -75 l 444 -75 l 440 -118 l 16 -118 z"},"v":{"x_min":0,"x_max":466,"ha":466,"o":"m 220 413 l 201 397 l 129 397 l 225 64 l 231 64 q 299 138 335 209 q 371 280 371 351 q 371 374 368 397 q 364 420 354 444 l 417 444 q 450 312 375 184 q 321 93 223 0 l 190 0 l 73 397 l 15 397 l 18 426 l 37 444 l 224 444 z"},"O":{"x_min":0,"x_max":717,"ha":717,"o":"m 396 660 q 527 660 604 572 q 681 484 681 359 q 681 258 636 174 q 590 91 510 40 q 430 -10 329 -10 q 198 -10 122 78 q 46 166 46 291 q 46 392 92 476 q 138 560 218 610 q 297 660 396 660 z m 337 42 q 423 42 487 86 q 551 129 586 200 q 622 272 622 355 q 622 463 562 536 q 502 608 390 608 q 264 608 184 516 q 105 423 105 296 q 105 192 162 117 q 220 42 337 42 z"},"(":{"x_min":0,"x_max":269,"ha":269,"o":"m 249 718 l 303 718 q 197 597 143 472 q 89 347 89 212 q 89 112 118 8 q 148 -95 208 -183 l 152 -183 q 94 -91 68 10 q 41 111 41 208 q 41 341 91 468 q 141 594 249 718 z"},"C":{"x_min":0,"x_max":633,"ha":633,"o":"m 535 45 q 494 16 440 3 q 386 -10 335 -10 q 196 -10 122 73 q 48 156 48 290 q 48 449 144 554 q 240 660 391 660 q 458 660 510 639 q 563 618 597 584 l 602 467 l 553 461 l 544 559 q 514 581 478 594 q 441 608 391 608 q 265 608 185 522 q 105 436 105 293 q 105 172 166 107 q 228 42 347 42 q 427 42 487 72 l 516 168 l 564 162 z"},"W":{"x_min":0,"x_max":898,"ha":898,"o":"m 928 599 l 872 599 l 642 0 l 593 0 l 482 547 l 478 547 l 253 0 l 203 0 l 88 599 l 34 599 l 39 650 l 249 650 l 243 599 l 146 599 l 236 93 l 241 93 l 449 599 l 381 599 l 387 650 l 597 650 l 591 599 l 523 599 l 625 91 l 630 91 l 816 599 l 719 599 l 724 650 l 933 650 z"},"A":{"x_min":0,"x_max":625,"ha":625,"o":"m -21 51 l 40 51 l 312 599 l 207 599 l 212 650 l 382 650 l 548 51 l 611 51 l 606 0 l 389 0 l 394 51 l 488 51 l 451 192 l 165 192 l 97 51 l 196 51 l 191 0 l -25 0 z m 348 566 l 188 238 l 439 238 l 352 566 z"},"f":{"x_min":0,"x_max":303,"ha":303,"o":"m 287 698 q 318 698 342 692 q 365 686 389 669 l 395 570 l 348 564 l 338 642 q 324 649 308 651 q 292 653 279 653 q 197 653 183 532 l 172 444 l 309 444 l 305 415 l 285 397 l 166 397 l 109 -67 q 89 -223 -27 -223 q -72 -223 -105 -196 q -138 -170 -136 -105 l -92 -92 q -95 -148 -72 -162 q -50 -177 -30 -177 q 42 -177 56 -66 l 113 397 l 27 397 l 30 426 l 50 444 l 119 444 l 130 530 q 150 698 287 698 z"},"Q":{"x_min":0,"x_max":727,"ha":727,"o":"m 396 660 q 527 660 604 572 q 681 484 681 359 q 681 193 566 84 l 648 -6 l 612 -41 l 527 52 q 438 -10 329 -10 q 198 -10 122 78 q 46 166 46 291 q 46 392 92 476 q 138 560 218 610 q 297 660 396 660 z m 398 194 l 435 229 l 531 122 q 622 215 622 355 q 622 463 562 536 q 502 608 390 608 q 264 608 184 516 q 105 423 105 296 q 105 192 162 117 q 220 42 337 42 q 423 42 492 90 z"},"w":{"x_min":0,"x_max":708,"ha":708,"o":"m 482 65 l 486 65 q 609 210 609 354 q 609 404 594 444 l 656 444 q 686 302 610 168 q 561 78 478 0 l 447 0 l 369 355 l 365 355 l 205 0 l 171 0 l 68 397 l 16 397 l 20 426 l 39 444 l 225 444 l 221 413 l 202 397 l 125 397 l 198 90 l 202 90 l 360 444 l 399 444 z"},"-":{"x_min":0,"x_max":349,"ha":349,"o":"m 59 254 l 285 254 l 280 205 l 54 205 z"},"E":{"x_min":0,"x_max":574,"ha":574,"o":"m 477 0 l 13 0 l 18 51 l 101 51 l 159 599 l 76 599 l 81 650 l 541 650 l 541 468 l 491 462 l 486 599 l 215 599 l 188 356 l 498 356 l 493 305 l 183 305 l 156 51 l 432 51 l 466 188 l 514 183 z"},"s":{"x_min":0,"x_max":412,"ha":412,"o":"m 177 36 q 294 36 294 122 q 294 166 263 182 q 232 198 176 212 q 132 223 96 244 q 59 266 59 323 q 59 384 104 418 q 148 453 209 453 q 256 453 295 440 q 334 427 357 412 l 356 310 l 312 304 l 308 379 q 288 390 267 398 q 246 406 216 406 q 115 406 115 329 q 115 297 138 282 q 160 266 210 253 q 256 241 303 218 q 350 196 350 128 q 350 66 306 28 q 261 -10 187 -10 q 140 -10 94 4 q 48 17 25 34 l 47 128 l 91 124 l 80 59 q 120 36 177 36 z"},">":{"x_min":0,"x_max":401,"ha":401,"o":"m 370 272 l 31 14 l 37 69 l 311 280 l 81 494 l 87 549 l 372 286 z"},"l":{"x_min":0,"x_max":234,"ha":234,"o":"m 53 671 l 71 688 l 189 688 l 110 46 l 189 46 l 185 15 l 167 0 l 52 0 l 130 642 l 49 642 z"},"8":{"x_min":0,"x_max":528,"ha":528,"o":"m 230 -10 q 145 -10 90 29 q 35 68 35 146 q 35 226 89 266 q 143 307 212 335 q 162 360 126 394 q 89 429 89 486 q 89 560 151 610 q 213 660 304 660 q 382 660 434 620 q 486 580 486 510 q 486 442 438 404 q 390 367 327 340 q 382 314 426 277 q 470 240 470 173 q 470 90 400 40 q 331 -10 230 -10 z m 148 495 q 148 445 188 416 q 228 387 280 363 q 339 387 384 418 q 428 450 428 507 q 428 559 392 584 q 355 610 300 610 q 237 610 192 579 q 148 548 148 495 z m 238 40 q 306 40 359 72 q 412 105 412 166 q 412 223 365 254 q 318 286 259 312 q 194 286 142 252 q 91 218 91 154 q 91 97 133 68 q 175 40 238 40 z"},"\\":{"x_min":0,"x_max":521,"ha":521,"o":"m 86 688 l 139 688 l 428 0 l 376 0 z"},"e":{"x_min":0,"x_max":435,"ha":435,"o":"m 209 36 q 303 36 339 130 l 382 119 q 367 65 320 28 q 274 -10 200 -10 q 119 -10 77 40 q 35 90 35 181 q 35 296 96 374 q 157 453 255 453 q 311 453 352 424 q 393 395 393 345 q 393 296 356 262 q 319 227 235 209 q 202 202 166 195 q 129 188 92 183 q 92 115 118 76 q 145 36 209 36 z m 215 245 q 295 264 315 289 q 335 314 335 340 q 335 406 251 406 q 173 406 138 349 q 102 292 94 225 q 134 230 164 235 q 193 240 215 245 z"},"b":{"x_min":0,"x_max":501,"ha":501,"o":"m 50 672 l 68 688 l 184 688 l 143 356 q 166 395 202 424 q 238 453 296 453 q 371 453 412 402 q 454 352 454 264 q 454 208 435 144 q 416 81 371 36 q 326 -10 247 -10 q 197 -10 159 12 q 121 34 105 75 q 101 56 96 38 q 91 19 86 0 l 34 0 q 42 28 50 62 q 58 95 62 127 l 124 642 l 46 642 z m 244 36 q 304 36 337 73 q 370 110 384 162 q 397 213 397 255 q 397 406 285 406 q 224 406 184 360 q 144 313 132 264 l 119 155 q 120 106 156 71 q 191 36 244 36 z"},"%":{"x_min":0,"x_max":662,"ha":662,"o":"m 168 244 q 115 244 82 274 q 50 304 50 366 q 50 446 96 488 q 141 530 208 530 q 259 530 292 500 q 325 471 325 407 q 325 334 283 289 q 241 244 168 244 z m 582 521 l 360 269 l 132 0 l 73 0 l 328 287 l 524 521 z m 173 286 q 228 286 253 320 q 278 354 278 403 q 278 487 201 487 q 97 487 97 371 q 97 286 173 286 z m 455 -10 q 402 -10 369 18 q 336 46 336 114 q 336 193 382 234 q 428 276 495 276 q 546 276 579 246 q 612 215 612 153 q 612 80 570 35 q 528 -10 455 -10 z m 460 32 q 516 32 540 66 q 565 100 565 149 q 565 234 488 234 q 384 234 384 117 q 384 32 460 32 z"},"m":{"x_min":0,"x_max":783,"ha":783,"o":"m 426 280 l 392 0 l 340 0 l 372 267 q 381 344 356 375 q 332 406 285 406 q 220 406 188 361 q 155 316 148 262 l 116 0 l 64 0 l 112 397 l 30 397 l 34 426 l 53 444 l 161 444 l 157 357 q 180 400 216 426 q 251 453 305 453 q 411 453 426 349 q 448 396 484 424 q 521 453 577 453 q 641 453 676 410 q 712 368 702 280 l 672 46 l 752 46 l 748 15 l 729 0 l 615 0 l 647 267 q 656 343 632 374 q 607 406 558 406 q 500 406 468 368 q 436 331 426 284 z"},"#":{"x_min":0,"x_max":583,"ha":583,"o":"m 505 521 l 469 398 l 555 398 l 550 352 l 455 352 l 404 177 l 502 177 l 497 131 l 390 131 l 352 0 l 302 0 l 340 131 l 156 131 l 118 0 l 68 0 l 106 131 l 25 131 l 30 177 l 120 177 l 171 352 l 77 352 l 82 398 l 185 398 l 221 521 l 271 521 l 235 398 l 419 398 l 455 521 z m 170 177 l 354 177 l 405 352 l 221 352 z"},",":{"x_min":0,"x_max":195,"ha":195,"o":"m -10 -107 l 62 105 l 115 105 l 43 -107 z"},"n":{"x_min":0,"x_max":518,"ha":518,"o":"m 53 444 l 161 444 l 157 357 q 182 400 220 426 q 257 453 310 453 q 374 453 410 412 q 447 371 436 280 l 407 46 l 487 46 l 483 15 l 464 0 l 350 0 l 382 267 q 391 343 366 374 q 341 406 290 406 q 231 406 194 363 q 157 320 149 270 l 148 262 l 116 0 l 64 0 l 112 397 l 30 397 l 34 426 z"},"h":{"x_min":0,"x_max":501,"ha":501,"o":"m 45 0 l 123 642 l 43 642 l 47 671 l 66 688 l 182 688 l 142 361 q 166 403 203 428 q 240 453 292 453 q 356 453 392 412 q 429 371 418 280 l 389 46 l 469 46 l 465 15 l 446 0 l 331 0 l 364 267 q 373 343 346 374 q 320 406 272 406 q 214 406 178 366 q 141 325 131 276 l 98 0 z"},"z":{"x_min":0,"x_max":447,"ha":447,"o":"m 368 0 l 18 0 l 10 36 l 339 397 l 118 397 l 97 303 l 51 309 l 77 444 l 396 444 l 409 408 l 84 46 l 327 46 l 361 141 l 404 133 z"},"B":{"x_min":0,"x_max":585,"ha":585,"o":"m 359 650 q 450 650 494 612 q 537 574 537 512 q 537 449 501 406 q 465 362 415 352 l 414 348 q 476 338 504 297 q 532 256 532 201 q 532 118 472 59 q 412 0 300 0 l 14 0 l 19 51 l 101 51 l 158 599 l 76 599 l 82 650 z m 325 361 q 386 361 432 396 q 478 432 478 497 q 478 599 351 599 l 213 599 l 189 361 z m 298 51 q 374 51 424 90 q 473 129 473 200 q 473 252 444 282 q 414 313 352 313 l 184 313 l 156 51 z"},"K":{"x_min":0,"x_max":616,"ha":616,"o":"m 18 51 l 100 51 l 157 599 l 75 599 l 80 650 l 297 650 l 292 599 l 212 599 l 187 356 l 296 356 l 496 600 l 419 600 l 425 651 l 637 651 l 631 600 l 560 600 l 340 337 l 513 51 l 586 51 l 581 0 l 365 0 l 371 51 l 448 51 l 295 306 l 182 306 l 155 51 l 234 51 l 228 0 l 12 0 z"},"R":{"x_min":0,"x_max":595,"ha":595,"o":"m 19 51 l 101 51 l 158 599 l 76 599 l 82 650 l 343 650 q 450 650 498 603 q 547 556 547 489 q 547 414 508 361 q 468 308 385 290 l 481 51 l 563 51 l 557 0 l 440 0 l 331 279 l 180 279 l 156 51 l 246 51 l 241 0 l 14 0 z m 315 327 q 407 327 448 372 q 489 418 489 484 q 489 599 332 599 l 213 599 l 185 327 z"},"T":{"x_min":0,"x_max":599,"ha":599,"o":"m 592 458 l 541 454 l 537 599 l 362 599 l 304 51 l 419 51 l 414 0 l 131 0 l 136 51 l 249 51 l 307 599 l 129 599 l 95 454 l 45 458 l 83 650 l 593 650 z"},"P":{"x_min":0,"x_max":556,"ha":556,"o":"m 19 51 l 101 51 l 158 599 l 76 599 l 82 650 l 337 650 q 444 650 492 597 q 540 544 540 474 q 540 368 476 308 q 413 249 308 249 l 177 249 l 156 51 l 269 51 l 263 0 l 14 0 z m 307 299 q 388 299 435 344 q 482 389 482 471 q 482 530 443 564 q 404 599 329 599 l 213 599 l 182 299 z"},"|":{"x_min":0,"x_max":228,"ha":228,"o":"m 186 730 l 101 -80 l 52 -80 l 137 730 z"},"t":{"x_min":0,"x_max":338,"ha":338,"o":"m 29 426 l 49 444 l 110 444 l 126 569 l 145 588 l 181 588 l 163 444 l 319 444 l 315 415 l 295 397 l 158 397 l 126 134 q 114 36 187 36 q 211 36 230 51 q 250 66 267 122 l 307 108 q 290 47 261 18 q 232 -10 181 -10 q 121 -10 93 28 q 65 66 73 130 l 105 397 l 25 397 z"},"M":{"x_min":0,"x_max":854,"ha":854,"o":"m 19 51 l 101 51 l 158 599 l 74 599 l 79 650 l 214 650 l 410 116 l 414 116 l 718 650 l 853 650 l 848 599 l 762 599 l 705 51 l 788 51 l 783 0 l 565 0 l 570 51 l 649 51 l 697 508 l 694 508 l 418 28 l 384 28 l 207 509 l 203 509 l 154 51 l 235 51 l 230 0 l 14 0 z"},"g":{"x_min":0,"x_max":510,"ha":510,"o":"m 396 444 l 514 444 l 511 413 l 492 397 l 435 397 l 387 2 q 374 -99 324 -161 q 274 -223 179 -223 q 111 -223 64 -189 q 16 -155 9 -92 l 51 -73 q 59 -128 98 -151 q 138 -174 183 -174 q 313 -174 334 5 l 344 87 q 320 48 282 19 q 244 -10 186 -10 q 113 -10 74 40 q 35 89 35 174 q 35 232 56 297 q 76 362 122 408 q 169 453 247 453 q 350 453 381 372 z m 249 406 q 190 406 156 370 q 121 334 106 282 q 92 230 92 182 q 92 36 197 36 q 261 36 302 86 q 344 135 355 182 l 368 284 q 368 334 336 370 q 305 406 249 406 z"},"j":{"x_min":0,"x_max":242,"ha":242,"o":"m 134 568 l 142 647 l 203 647 l 195 568 z m 24 426 l 43 444 l 185 444 l 127 -27 q 104 -215 -4 -223 q -40 -224 -78 -208 l -75 -166 q -23 -188 18 -162 q 60 -135 74 -27 l 126 397 l 20 397 z"},"i":{"x_min":0,"x_max":250,"ha":250,"o":"m 129 568 l 137 647 l 198 647 l 190 568 z m 37 426 l 56 444 l 173 444 l 124 46 l 204 46 l 200 15 l 181 0 l 66 0 l 114 397 l 33 397 z"},"y":{"x_min":0,"x_max":465,"ha":465,"o":"m 225 64 l 231 64 q 369 213 369 351 q 369 374 366 397 q 362 420 352 444 l 416 444 q 449 312 374 184 q 325 100 237 13 l 214 -167 l 295 -167 l 292 -197 l 273 -213 l 79 -213 l 83 -184 l 101 -167 l 161 -167 l 186 14 l 74 397 l 15 397 l 18 426 l 37 444 l 224 444 l 220 413 l 201 397 l 130 397 z"},"@":{"x_min":0,"x_max":894,"ha":894,"o":"m 610 311 l 588 132 q 588 129 587 123 q 586 117 586 110 q 586 81 600 56 q 614 31 652 31 q 705 31 738 74 q 770 118 784 181 q 799 244 799 302 q 799 421 752 488 q 705 555 634 582 q 563 610 492 610 q 376 610 282 554 q 189 498 135 402 q 81 306 81 186 q 81 23 178 -68 q 274 -158 413 -158 q 539 -158 636 -94 l 653 -130 q 600 -163 536 -182 q 472 -202 404 -202 q 297 -202 214 -152 q 130 -103 82 -16 q 35 70 35 183 q 35 311 95 418 q 155 525 258 590 q 361 654 490 654 q 572 654 654 620 q 737 586 792 512 q 848 437 848 314 q 848 246 827 171 q 806 96 760 43 q 714 -10 639 -10 q 586 -10 561 21 q 536 52 532 92 q 510 51 474 20 q 438 -10 379 -10 q 306 -10 268 40 q 229 89 229 177 q 229 233 248 298 q 267 362 312 408 q 357 453 435 453 q 539 453 569 367 q 577 408 588 444 l 640 444 q 631 412 622 376 q 614 340 610 311 z m 437 406 q 378 406 345 370 q 312 333 299 282 q 286 230 286 185 q 286 36 391 36 q 450 36 488 82 q 527 127 539 173 l 554 291 q 552 341 521 374 q 490 406 437 406 z"},".":{"x_min":0,"x_max":204,"ha":204,"o":"m 35 0 l 43 84 l 121 84 l 113 0 z"},"p":{"x_min":0,"x_max":517,"ha":517,"o":"m 195 -197 l 175 -213 l -28 -213 l -24 -184 l -6 -167 l 43 -167 l 112 397 l 31 397 l 35 426 l 54 444 l 162 444 l 157 350 q 180 391 216 422 q 253 453 313 453 q 387 453 428 402 q 470 352 470 264 q 470 208 451 144 q 432 81 387 36 q 342 -10 263 -10 q 160 -10 124 68 l 95 -167 l 198 -167 z m 260 36 q 320 36 353 73 q 386 110 400 162 q 413 213 413 255 q 413 329 383 368 q 353 406 301 406 q 237 406 198 356 q 158 307 148 258 l 136 162 q 134 110 169 73 q 204 36 260 36 z"},"X":{"x_min":0,"x_max":609,"ha":609,"o":"m 573 0 l 362 0 l 367 51 l 455 51 l 304 296 l 110 51 l 189 51 l 184 0 l -22 0 l -16 51 l 47 51 l 279 338 l 116 599 l 51 599 l 56 650 l 262 650 l 257 599 l 179 599 l 315 378 l 491 599 l 422 599 l 428 650 l 633 650 l 628 599 l 554 599 l 340 338 l 518 51 l 579 51 z"},"*":{"x_min":0,"x_max":407,"ha":407,"o":"m 386 562 l 260 492 l 371 423 l 343 386 l 241 458 l 231 339 l 187 339 l 203 458 l 84 386 l 65 423 l 191 492 l 80 562 l 107 599 l 210 526 l 220 650 l 264 650 l 248 526 l 365 599 z"},"Y":{"x_min":0,"x_max":591,"ha":591,"o":"m 624 599 l 559 599 l 321 248 l 301 51 l 415 51 l 409 0 l 129 0 l 134 51 l 246 51 l 266 248 l 95 599 l 30 599 l 35 650 l 257 650 l 251 599 l 156 599 l 300 301 l 304 301 l 502 599 l 409 599 l 414 650 l 628 650 z"},"c":{"x_min":0,"x_max":440,"ha":440,"o":"m 252 406 q 192 406 157 372 q 122 339 107 288 q 92 238 92 187 q 92 117 118 76 q 145 36 205 36 q 304 36 342 156 l 385 145 q 370 87 326 38 q 283 -10 201 -10 q 122 -10 78 42 q 35 93 35 183 q 35 241 56 304 q 77 366 124 410 q 170 453 249 453 q 331 453 388 405 l 394 306 l 347 300 l 338 375 q 303 406 252 406 z"},"!":{"x_min":0,"x_max":232,"ha":232,"o":"m 187 650 l 127 181 l 85 181 l 124 650 z m 53 0 l 62 84 l 133 84 l 124 0 z"},"/":{"x_min":0,"x_max":372,"ha":372,"o":"m 370 688 l 80 0 l 28 0 l 317 688 z"},"[":{"x_min":0,"x_max":275,"ha":275,"o":"m 39 -204 l 139 741 l 299 741 l 294 698 l 182 698 l 92 -161 l 204 -161 l 199 -204 z"},"6":{"x_min":0,"x_max":526,"ha":526,"o":"m 467 227 q 467 139 416 64 q 366 -10 245 -10 q 132 -10 92 61 q 53 132 53 251 q 53 352 79 446 q 105 540 164 600 q 224 660 326 660 q 387 660 426 637 q 465 614 495 573 l 457 537 q 407 610 317 610 q 219 610 168 521 q 118 432 110 278 q 128 321 176 360 q 224 398 306 398 q 393 398 430 350 q 467 302 467 227 z m 410 218 q 410 282 382 315 q 355 348 291 348 q 201 348 160 295 q 120 242 110 195 q 112 130 141 86 q 170 42 250 42 q 336 42 373 93 q 410 144 410 218 z"},"r":{"x_min":0,"x_max":339,"ha":339,"o":"m 222 16 l 203 0 l 1 0 l 5 29 l 23 46 l 78 46 l 121 397 l 41 397 l 45 426 l 63 444 l 169 444 l 166 350 q 185 393 214 424 q 244 454 285 454 q 314 454 341 437 l 330 382 q 303 397 276 397 q 233 397 202 356 q 172 314 160 264 l 160 263 l 132 46 l 226 46 z"},"2":{"x_min":0,"x_max":500,"ha":500,"o":"m 113 371 l 69 377 l 96 486 q 128 506 177 518 q 226 531 273 531 q 357 531 392 486 q 427 440 427 389 q 427 316 369 251 q 311 186 234 135 q 158 84 103 51 l 372 51 l 391 136 l 437 133 l 413 0 l 27 0 l 26 44 q 190 151 278 226 q 367 300 367 383 q 367 481 252 481 q 231 481 200 474 q 168 468 139 456 z"},"{":{"x_min":0,"x_max":273,"ha":273,"o":"m 106 267 q 150 259 169 238 q 188 218 188 192 q 188 157 159 104 q 130 52 102 -4 q 73 -60 73 -106 q 73 -160 129 -160 l 192 -160 l 187 -203 l 124 -203 q 26 -203 26 -109 q 26 -57 54 0 q 83 58 112 109 q 140 160 140 191 q 140 228 106 238 q 72 249 50 249 l 32 249 l 36 284 l 54 284 q 78 284 118 297 q 157 310 157 354 q 157 398 130 474 q 103 549 103 616 q 103 677 136 709 q 168 741 223 741 l 286 741 l 282 698 l 219 698 q 149 698 149 620 q 149 579 163 530 q 177 480 191 434 q 205 388 205 356 q 205 326 183 301 q 161 276 106 267 z"},"9":{"x_min":0,"x_max":525,"ha":525,"o":"m 54 293 q 54 381 104 456 q 155 530 276 530 q 388 530 428 459 q 468 388 468 269 q 468 168 442 74 q 416 -20 356 -80 q 296 -140 195 -140 q 134 -140 95 -117 q 56 -94 26 -53 l 64 -17 q 114 -90 204 -90 q 302 -90 352 -1 q 403 88 411 242 q 393 199 345 160 q 297 122 215 122 q 128 122 91 170 q 54 218 54 293 z m 111 302 q 111 238 138 205 q 166 172 230 172 q 320 172 360 225 q 401 278 411 325 q 409 390 380 434 q 351 478 271 478 q 185 478 148 427 q 111 376 111 302 z"}," ":{"x_min":0,"x_max":231,"ha":231,"o":""},"I":{"x_min":0,"x_max":303,"ha":303,"o":"m 18 51 l 101 51 l 158 599 l 75 599 l 81 650 l 301 650 l 296 599 l 212 599 l 155 51 l 239 51 l 233 0 l 13 0 z"},"H":{"x_min":0,"x_max":733,"ha":733,"o":"m 19 51 l 101 51 l 158 599 l 76 599 l 82 650 l 302 650 l 296 599 l 213 599 l 188 356 l 562 356 l 587 599 l 505 599 l 511 650 l 731 650 l 725 599 l 642 599 l 585 51 l 668 51 l 663 0 l 443 0 l 448 51 l 530 51 l 557 307 l 183 307 l 156 51 l 239 51 l 234 0 l 14 0 z"},"4":{"x_min":0,"x_max":521,"ha":521,"o":"m 349 -131 l 294 -131 l 312 35 l 4 35 l 3 84 l 287 521 l 418 521 l 372 84 l 477 84 l 464 35 l 367 35 z m 317 84 l 358 471 l 307 471 l 57 84 z"},"~":{"x_min":0,"x_max":614,"ha":614,"o":"m 412 206 q 366 206 332 224 q 298 242 266 260 q 234 279 190 279 q 165 279 138 266 q 112 254 83 214 l 51 236 q 84 287 123 308 q 162 330 199 330 q 243 330 276 312 q 310 294 343 276 q 376 257 419 257 q 450 257 475 274 q 500 290 532 336 l 567 312 q 527 254 490 230 q 454 206 412 206 z"},"D":{"x_min":0,"x_max":689,"ha":689,"o":"m 362 650 q 504 650 578 568 q 653 487 653 360 q 653 207 556 104 q 459 0 296 0 l 13 0 l 19 50 l 101 50 l 158 600 l 76 600 l 81 650 z m 299 50 q 436 50 516 137 q 595 224 595 356 q 595 464 534 532 q 473 600 356 600 l 212 600 l 155 50 z"},"^":{"x_min":0,"x_max":440,"ha":440,"o":"m 243 657 l 279 657 l 409 374 l 358 374 l 255 603 l 106 374 l 55 374 z"},"0":{"x_min":0,"x_max":566,"ha":566,"o":"m 46 224 q 46 348 114 439 q 182 530 310 530 q 416 530 466 463 q 516 396 516 293 q 516 165 447 78 q 378 -10 253 -10 q 149 -10 98 55 q 46 120 46 224 z m 104 231 q 104 145 140 93 q 177 41 259 41 q 354 41 406 111 q 457 181 457 292 q 457 375 422 427 q 388 479 304 479 q 206 479 155 408 q 104 338 104 231 z"},"F":{"x_min":0,"x_max":544,"ha":544,"o":"m 533 466 l 480 460 l 476 599 l 214 599 l 185 328 l 486 328 l 481 277 l 180 277 l 156 51 l 272 51 l 267 0 l 13 0 l 18 51 l 101 51 l 159 599 l 76 599 l 81 650 l 532 650 z"},"`":{"x_min":0,"x_max":431,"ha":431,"o":"m 390 523 l 214 631 l 243 678 l 406 549 z"},"k":{"x_min":0,"x_max":440,"ha":440,"o":"m 47 671 l 66 688 l 182 688 l 129 254 l 216 254 q 265 293 295 340 q 325 388 329 444 l 387 444 q 381 381 344 328 q 307 275 249 235 l 352 46 l 413 46 l 409 15 l 390 0 l 319 0 l 207 210 l 123 210 l 98 0 l 45 0 l 123 642 l 43 642 z"},"u":{"x_min":0,"x_max":517,"ha":517,"o":"m 475 46 l 471 17 l 452 0 l 344 0 l 347 85 q 323 42 286 16 q 250 -9 198 -9 q 134 -9 98 32 q 62 72 72 163 l 100 397 l 21 397 l 25 428 l 44 444 l 159 444 l 127 176 q 117 101 140 69 q 164 37 219 37 q 274 37 308 76 q 343 114 354 160 l 389 444 l 442 444 l 393 46 z"},"]":{"x_min":0,"x_max":275,"ha":275,"o":"m 234 741 l 134 -204 l -26 -204 l -21 -161 l 91 -161 l 181 698 l 69 698 l 74 741 z"},"U":{"x_min":0,"x_max":698,"ha":698,"o":"m 489 650 l 698 650 l 693 599 l 629 599 l 595 266 q 588 197 562 134 q 535 70 478 30 q 422 -10 325 -10 q 185 -10 138 70 q 91 150 102 255 l 138 599 l 70 599 l 75 650 l 291 650 l 285 599 l 194 599 l 158 257 q 136 42 331 42 q 518 42 543 266 l 577 599 l 484 599 z"},"o":{"x_min":0,"x_max":479,"ha":479,"o":"m 36 188 q 36 294 93 374 q 150 453 260 453 q 354 453 393 394 q 432 334 432 252 q 432 143 374 66 q 315 -10 208 -10 q 117 -10 76 46 q 36 102 36 188 z m 93 190 q 93 122 119 79 q 145 36 213 36 q 297 36 336 100 q 374 164 374 251 q 374 318 348 362 q 323 406 254 406 q 174 406 134 344 q 93 282 93 190 z"},"N":{"x_min":0,"x_max":710,"ha":710,"o":"m 25 51 l 101 51 l 158 599 l 74 599 l 79 650 l 204 650 l 521 117 l 524 117 l 574 599 l 479 599 l 484 650 l 716 650 l 711 599 l 628 599 l 566 0 l 528 0 l 208 539 l 205 539 l 153 51 l 259 51 l 254 0 l 20 0 z"},"+":{"x_min":0,"x_max":419,"ha":419,"o":"m 38 259 l 42 303 l 193 303 l 210 455 l 253 455 l 236 303 l 382 303 l 378 259 l 232 259 l 216 108 l 173 108 l 189 259 z"},"G":{"x_min":0,"x_max":680,"ha":680,"o":"m 651 277 l 597 277 l 568 0 l 525 0 l 527 96 q 495 51 438 20 q 380 -10 308 -10 q 188 -10 118 76 q 47 162 47 292 q 47 397 92 480 q 138 564 217 612 q 296 660 396 660 q 462 660 517 639 q 572 618 606 584 l 611 467 l 562 461 l 552 558 q 529 575 492 592 q 455 608 395 608 q 266 608 185 522 q 104 437 104 295 q 104 177 162 110 q 220 42 321 42 q 417 42 472 95 q 528 148 534 204 l 542 277 l 381 277 l 387 328 l 657 328 z"},"q":{"x_min":0,"x_max":500,"ha":500,"o":"m 425 -197 l 406 -213 l 210 -213 l 214 -184 l 233 -167 l 312 -167 l 344 87 q 320 47 282 18 q 244 -10 186 -10 q 113 -10 74 40 q 35 90 35 175 q 35 232 56 297 q 76 362 122 408 q 169 453 247 453 q 352 453 383 368 q 391 409 402 444 l 455 444 q 445 410 438 377 q 430 344 425 311 l 366 -167 l 429 -167 z m 251 406 q 190 406 156 370 q 121 333 106 282 q 92 230 92 183 q 92 36 200 36 q 258 36 300 82 q 342 129 355 175 l 368 283 q 369 334 336 370 q 303 406 251 406 z"},"d":{"x_min":0,"x_max":507,"ha":507,"o":"m 307 672 l 326 688 l 472 688 l 392 46 l 473 46 l 470 15 l 451 0 l 342 0 l 346 90 q 322 50 284 20 q 245 -10 186 -10 q 113 -10 74 40 q 35 90 35 175 q 35 232 56 297 q 76 362 122 408 q 169 453 247 453 q 347 453 379 376 l 412 642 l 304 642 z m 251 406 q 190 406 156 370 q 121 333 106 282 q 92 230 92 183 q 92 36 200 36 q 261 36 302 85 q 344 134 355 181 l 369 290 q 367 340 334 373 q 301 406 251 406 z"},"1":{"x_min":0,"x_max":370,"ha":370,"o":"m 30 51 l 152 51 l 196 470 l 75 470 l 80 521 l 258 521 l 208 51 l 328 51 l 322 0 l 25 0 z"},"5":{"x_min":0,"x_max":501,"ha":501,"o":"m 433 77 q 433 -17 376 -78 q 320 -140 213 -140 q 128 -140 86 -101 q 43 -62 34 -10 l 78 6 q 105 -91 213 -91 q 291 -91 332 -48 q 373 -4 373 69 q 373 160 315 188 q 257 215 174 215 q 134 215 94 212 l 76 232 l 107 521 l 452 521 l 445 395 l 398 390 l 398 471 l 154 471 l 132 264 q 145 265 158 265 q 172 265 184 265 q 250 265 306 250 q 363 235 398 194 q 433 154 433 77 z"}}}
